HIERARCHY
ROOT Hips
{
	OFFSET -3.958830 18.904000 13.208200
	CHANNELS 6 Xposition Yposition Zposition Zrotation Yrotation Xrotation 
	JOINT LHipJoint
	{
		OFFSET 0.000000 0.000000 0.000000
		CHANNELS 3 Zrotation Yrotation Xrotation
		JOINT LeftUpLeg
		{
			OFFSET 1.800000 -1.400000 0.085000
			CHANNELS 3 Zrotation Yrotation Xrotation
			JOINT LeftLeg
			{
				OFFSET 2.215000 -6.000000 0.000000
				CHANNELS 3 Zrotation Yrotation Xrotation
				JOINT LeftFoot
				{
					OFFSET 2.500000 -6.900000 0.000000
					CHANNELS 3 Zrotation Yrotation Xrotation
					JOINT LeftToeBase
					{
						OFFSET 0.200000 -0.500000 1.950000
						CHANNELS 3 Zrotation Yrotation Xrotation
						End Site
						{
							OFFSET 0.000000 0.000000 0.000000
						}
					}
				}
			}
		}
	}
	JOINT RHipJoint
	{
		OFFSET 0.000000 0.000000 0.000000
		CHANNELS 3 Zrotation Yrotation Xrotation
		JOINT RightUpLeg
		{
			OFFSET -1.800000 -1.400000 0.085000
			CHANNELS 3 Zrotation Yrotation Xrotation
			JOINT RightLeg
			{
				OFFSET -2.215000 -6.000000 0.000000
				CHANNELS 3 Zrotation Yrotation Xrotation
				JOINT RightFoot
				{
					OFFSET -2.500000 -6.900000 0.000000
					CHANNELS 3 Zrotation Yrotation Xrotation
					JOINT RightToeBase
					{
						OFFSET -0.200000 -0.500000 1.950000
						CHANNELS 3 Zrotation Yrotation Xrotation
						End Site
						{
							OFFSET 0.000000 0.000000 0.000000
						}
					}
				}
			}
		}
	}
	JOINT LowerBack
	{
		OFFSET 0.000000 0.000000 0.000000
		CHANNELS 3 Zrotation Yrotation Xrotation
		JOINT Spine
		{
			OFFSET -0.087000 1.940000 -0.288900
			CHANNELS 3 Zrotation Yrotation Xrotation
			JOINT Spine1
			{
				OFFSET 0.000000 1.950000 0.060000
				CHANNELS 3 Zrotation Yrotation Xrotation
				JOINT Neck
				{
					OFFSET 0.000000 0.000000 0.000000
					CHANNELS 3 Zrotation Yrotation Xrotation
					JOINT Neck1
					{
						OFFSET 0.000000 1.600000 0.340000
						CHANNELS 3 Zrotation Yrotation Xrotation
						JOINT Head
						{
							OFFSET 0.000000 1.667000 -0.240000
							CHANNELS 3 Zrotation Yrotation Xrotation
							End Site
							{
								OFFSET 0.000000 0.000000 0.000000
							}
						}
					}
				}
				JOINT LeftShoulder
				{
					OFFSET 0.000000 0.000000 0.000000
					CHANNELS 3 Zrotation Yrotation Xrotation
					JOINT LeftArm
					{
						OFFSET 2.700000 1.550000 -0.730000
						CHANNELS 3 Zrotation Yrotation Xrotation
						JOINT LeftForeArm
						{
							OFFSET 5.450000 0.000000 0.000000
							CHANNELS 3 Zrotation Yrotation Xrotation
							JOINT LeftHand
							{
								OFFSET 3.450000 0.000000 0.000000
								CHANNELS 3 Zrotation Yrotation Xrotation
								JOINT LeftHandIndex1
								{
									OFFSET 0.750000 0.000000 0.000000
									CHANNELS 3 Zrotation Yrotation Xrotation
									End Site
									{
										OFFSET 0.000000 0.000000 0.000000
									}
								}
							}
						}
					}
				}
				JOINT RightShoulder
				{
					OFFSET 0.000000 0.000000 0.000000
					CHANNELS 3 Zrotation Yrotation Xrotation
					JOINT RightArm
					{
						OFFSET -2.700000 1.550000 -0.730000
						CHANNELS 3 Zrotation Yrotation Xrotation
						JOINT RightForeArm
						{
							OFFSET -5.450000 0.000000 0.000000
							CHANNELS 3 Zrotation Yrotation Xrotation
							JOINT RightHand
							{
								OFFSET -3.450000 0.000000 0.000000
								CHANNELS 3 Zrotation Yrotation Xrotation
								JOINT RightHandIndex1
								{
									OFFSET -0.750000 0.000000 0.000000
									CHANNELS 3 Zrotation Yrotation Xrotation
									End Site
									{
										OFFSET 0.000000 0.000000 0.000000
									}
								}
							}
						}
					}
				}
			}
		}
	}
}
MOTION
Frames: 10
Frame Time: 0.016667
-1.157320 16.035340 -2.447790 -4.908671 0.093505 -1.242922 -15.883736 11.660044 5.708219 6.700948 -12.040441 -50.415546 -0.197161 10.145738 58.728778 0.941110 9.717372 0.904536 0.554790 0.569860 0.361310 18.090329 -7.508708 4.035463 5.406803 14.460170 -33.418658 2.304185 -5.686434 47.582345 -0.895308 -5.722017 2.179329 0.267810 -0.306170 -0.017250 -2.388734 -4.911132 -9.364462 0.368766 4.861225 79.714706 9.256984 8.678256 0.954263 0.992322 -7.294521 -17.352029 -34.698786 18.964855 66.497404 5.356330 -4.882200 -4.121360 -36.935673 -27.754550 2.697500 -37.225865 -14.322972 -4.849412 -8.748866 -11.439224 -0.523645 -3.195573 3.012315 0.342650 -0.370170 0.362610 0.104810 38.381277 35.532904 13.608002 8.698009 10.965868 -8.689436 -2.307634 6.083221 -0.745796 2.857533 -0.915801 0.150270 0.124840 -0.225420 0.004620 
-1.181750 16.091110 -2.436320 -4.209449 0.009952 -1.594827 -15.853697 11.806870 5.626071 7.548722 -11.688117 -48.515747 -2.770762 11.191350 56.461805 0.907398 9.550148 0.935638 0.596980 0.628700 0.395700 18.071495 -7.734002 3.896493 5.788443 13.397648 -32.390361 1.106530 -5.056803 46.471611 -0.860480 -5.466774 2.258541 0.294890 -0.336790 -0.009670 -2.399446 -4.833219 -9.257585 -0.626222 5.467915 76.889101 8.975538 8.748152 2.352085 0.584602 -6.766929 -16.959075 -33.105346 18.467928 68.205067 5.544600 -3.913220 -4.326980 -35.752334 -27.149111 2.402441 -35.275338 -16.238988 -4.982279 -8.218048 -14.529631 -0.290222 -3.185027 3.032113 0.341490 -0.374750 0.386930 0.108780 37.525123 34.527905 13.574528 10.210784 10.146654 -8.501717 -2.688607 7.092242 -0.759660 2.806244 -1.009009 0.171890 0.106280 -0.253060 -0.002860 
-1.205550 16.159320 -2.420690 -3.562617 0.498289 -1.451542 -15.830707 11.974731 5.542496 8.055071 -11.399874 -46.654217 -4.945929 11.659808 53.412429 0.834487 9.191882 1.038087 0.613010 0.654080 0.405850 18.041805 -7.945737 3.769125 5.768129 12.291631 -31.828212 0.406704 -4.658031 44.878721 -0.800916 -5.161281 2.357597 0.307350 -0.345930 -0.006130 -2.384345 -4.820241 -9.150634 -1.210604 5.553053 73.136894 8.837378 8.685092 3.553351 0.196215 -6.510941 -16.434260 -32.007113 17.396405 69.263184 5.779320 -3.805030 -4.489130 -34.500820 -26.050986 1.961293 -34.405098 -17.576804 -5.482439 -7.722332 -18.788305 -0.059709 -3.171125 3.052375 0.340020 -0.374330 0.396720 0.112900 36.593232 33.211797 13.584887 12.091228 8.647914 -8.134414 -2.942339 8.081086 -0.742808 2.752279 -1.089033 0.179840 0.100490 -0.264280 -0.004430 
-1.220370 16.248920 -2.406570 -3.092679 0.924556 -0.864763 -15.795024 12.151019 5.446678 8.399481 -10.968566 -44.871103 -6.770888 11.669873 49.646623 0.725426 8.660760 1.203292 0.606340 0.653890 0.395240 18.017954 -8.189120 3.647002 5.915299 11.085034 -31.265786 -0.424681 -4.034111 41.991567 -0.686863 -4.627033 2.540564 0.307660 -0.335900 -0.004810 -2.395229 -4.748677 -9.033320 -1.605369 5.408326 68.878014 8.453411 8.493828 4.256138 -0.165464 -6.473427 -15.824940 -31.317954 16.238837 69.148291 6.039630 -3.902210 -4.664790 -33.351062 -24.727476 1.491774 -33.824738 -18.543244 -5.974827 -7.437601 -23.122486 0.169887 -3.170486 3.063724 0.334580 -0.365820 0.392490 0.114400 35.768523 31.785499 13.536411 14.194466 6.832693 -7.651017 -2.761380 9.184844 -0.689498 2.696154 -1.152250 0.178080 0.102370 -0.260480 -0.001260 
-1.220820 16.358820 -2.401500 -3.014601 0.987697 0.179082 -15.747184 12.308979 5.316276 8.852017 -10.223914 -43.210836 -8.420811 11.397635 45.168635 0.599008 7.992236 1.420605 0.591100 0.639740 0.382720 18.008200 -8.408199 3.587887 6.300526 10.120413 -30.953395 -1.078036 -3.405346 38.414147 -0.554131 -3.996590 2.762528 0.298030 -0.319500 -0.002210 -2.439566 -4.622239 -8.931521 -1.594762 5.062679 64.532924 7.808584 8.291963 4.677774 -0.462133 -6.532139 -15.244483 -30.747087 15.155813 67.933791 6.258920 -3.809260 -4.695240 -32.070141 -23.441962 1.051603 -33.127022 -19.475982 -6.213761 -7.797418 -27.260645 0.553465 -3.180850 3.077662 0.321420 -0.352450 0.379880 0.114080 34.730272 30.437245 13.495155 16.309587 4.942649 -7.133702 -2.411253 10.386419 -0.627156 2.651980 -1.210969 0.176260 0.098910 -0.255240 0.002990 
-1.219730 16.470630 -2.389880 -3.105815 0.952171 1.533036 -15.700063 12.504217 5.101972 8.871447 -9.225493 -41.342629 -9.085744 10.599026 40.324975 0.442472 7.140711 1.702140 0.569350 0.616520 0.372770 17.995339 -8.598087 3.602621 6.791029 9.432244 -30.962561 -1.488366 -2.880398 34.685908 -0.424076 -3.377984 2.985829 0.284510 -0.306210 0.000660 -2.474293 -4.524550 -8.837217 -1.287557 4.700488 59.487183 7.092271 8.105331 5.185165 -0.588324 -6.334044 -14.694538 -29.334857 13.890480 67.186562 6.106350 -3.377190 -4.314870 -30.806785 -22.164767 0.768802 -33.009964 -20.149832 -6.337434 -8.204793 -31.388744 0.955919 -3.200330 3.090715 0.306370 -0.332540 0.364050 0.108320 33.360687 29.077712 13.368678 18.701435 3.336324 -6.519419 -2.043902 11.185212 -0.571828 2.627080 -1.246203 0.171360 0.088750 -0.248080 0.000010 
-1.212170 16.585900 -2.378930 -3.233546 1.418637 2.967455 -15.636957 12.701567 4.825320 8.387080 -8.235352 -39.105552 -9.169762 9.473954 35.153661 0.275107 6.161987 2.041294 0.541970 0.580800 0.369620 17.994473 -8.784129 3.684023 7.241943 8.969388 -31.524206 -1.869966 -2.477740 31.397755 -0.316496 -2.850282 3.176608 0.263640 -0.296520 0.004100 -2.551316 -4.379725 -8.758546 -0.404317 3.937775 54.567150 6.044301 7.661852 5.550678 -0.492768 -6.151929 -14.388819 -27.789363 12.448972 65.799065 5.643890 -2.899350 -4.299330 -29.465003 -21.242526 0.678976 -33.183899 -20.661709 -6.448377 -8.004944 -35.467551 1.188350 -3.215671 3.091553 0.300330 -0.315540 0.350640 0.095850 31.561766 27.975826 13.383407 21.515321 1.616646 -5.717482 -1.206881 11.260758 -0.458603 2.617376 -1.241872 0.161830 0.081540 -0.236740 -0.009610 
-1.205490 16.700160 -2.368500 -3.149685 2.633638 4.412442 -15.568685 12.841891 4.550748 7.493475 -7.468113 -36.811796 -8.981271 8.353344 30.355225 0.142007 5.240308 2.377196 0.512160 0.543100 0.362290 18.007532 -8.950656 3.804370 7.471991 8.708690 -32.820756 -2.279700 -2.229223 29.232913 -0.239344 -2.502429 3.304730 0.239460 -0.284420 0.008610 -2.665024 -4.168651 -8.717549 0.778236 2.935023 49.957242 4.756789 6.963220 5.818775 -0.299293 -5.699946 -13.863113 -25.280341 10.184422 64.061747 5.393820 -2.848400 -4.476150 -28.022998 -20.300154 0.637815 -33.650773 -21.169187 -6.644465 -7.187673 -40.374371 1.233910 -3.224455 3.095702 0.289990 -0.297520 0.335340 0.085490 29.448923 26.525271 13.328207 24.960522 -0.496629 -5.238086 0.125040 11.872471 -0.336439 2.601721 -1.240367 0.155000 0.072490 -0.226560 -0.015460 
-1.195110 16.802590 -2.369980 -2.737758 6.016388 5.771996 -15.500758 12.914890 4.313752 5.818899 -7.124512 -34.771115 -8.028459 7.181402 26.607586 0.032861 4.416508 2.694370 0.488620 0.515860 0.349690 18.036041 -9.072313 3.949914 6.602614 8.621167 -35.563552 -1.962103 -2.481009 29.186352 -0.209321 -2.465131 3.312728 0.223300 -0.270080 0.015410 -2.836463 -3.962127 -8.709109 2.695697 1.161699 45.972687 3.386582 5.610337 5.866123 -0.100840 -5.272054 -13.042692 -22.700536 7.461072 60.460453 5.336760 -3.219430 -5.556930 -26.274330 -19.289471 0.460659 -34.558548 -22.625028 -6.328845 -6.821844 -45.750404 1.435617 -3.230386 3.112854 0.275920 -0.280690 0.317920 0.079870 27.024394 24.517985 13.094240 28.542255 -2.814090 -5.213517 1.490072 13.062453 -0.237726 2.583652 -1.245376 0.150980 0.065110 -0.217930 -0.016120 
-1.175850 16.893220 -2.373550 -2.452381 9.093243 6.773301 -15.428710 12.964165 4.034666 4.335910 -6.554559 -32.426609 -6.854792 6.291608 23.777907 -0.053361 3.811521 2.938733 0.468720 0.488000 0.346690 18.085256 -9.168710 4.133043 5.818051 8.719032 -38.555956 -2.069368 -2.794251 30.808083 -0.225294 -2.676753 3.226598 0.211020 -0.264540 0.021800 -3.048805 -3.720352 -8.700952 4.714737 -0.485988 42.582510 1.620245 4.323480 5.823738 0.264544 -4.791726 -12.263013 -20.162606 4.822884 56.390006 4.807570 -3.594060 -6.932000 -24.817197 -18.415035 0.271164 -35.346235 -24.155095 -5.788285 -5.618900 -50.420521 1.233630 -3.233856 3.118237 0.267320 -0.267220 0.303610 0.071690 24.585418 22.515953 12.807985 32.002081 -4.914223 -5.660987 2.966807 14.791540 -0.146925 2.561144 -1.248343 0.143500 0.059530 -0.210310 -0.024150 
